<svg width="806" height="184" viewBox="0 0 806 184" fill="none" xmlns="http://www.w3.org/2000/svg">
<rect width="806" height="184" fill="#F2F2F2"/>
<rect x="2.5" y="2.5" width="188" height="179" fill="#3E4874" stroke="#F2F2F2" stroke-width="5"/>
<path d="M266.65 125.6C271.95 125.6 276.667 124.667 280.8 122.8C284.933 120.933 288.183 118.233 290.55 114.7C292.95 111.133 294.15 106.833 294.15 101.8C294.15 98.0667 293.483 94.8833 292.15 92.25C290.85 89.6167 289.05 87.3667 286.75 85.5C284.45 83.6 281.783 81.95 278.75 80.55C275.717 79.1167 272.5 77.7333 269.1 76.4C266.567 75.4333 264.15 74.4333 261.85 73.4C259.55 72.3333 257.667 70.9667 256.2 69.3C254.733 67.6333 254 65.4167 254 62.65C254 60.35 254.567 58.1833 255.7 56.15C256.833 54.1167 258.467 52.4667 260.6 51.2C262.767 49.9 265.4 49.25 268.5 49.25C272.3 49.25 275.7 50.1167 278.7 51.85C281.7 53.55 284.017 55.4833 285.65 57.65L290.4 50.2C289.067 48.5 287.283 46.8833 285.05 45.35C282.817 43.7833 280.267 42.5 277.4 41.5C274.567 40.5 271.55 40 268.35 40C263.583 40 259.383 41.05 255.75 43.15C252.117 45.25 249.283 48.0333 247.25 51.5C245.217 54.9667 244.2 58.7333 244.2 62.8C244.2 66.8333 245.133 70.1833 247 72.85C248.9 75.5167 251.25 77.6833 254.05 79.35C256.883 81.0167 259.667 82.4 262.4 83.5C266.3 85.0333 269.833 86.55 273 88.05C276.167 89.55 278.667 91.3833 280.5 93.55C282.367 95.6833 283.3 98.5167 283.3 102.05C283.3 105.15 282.55 107.75 281.05 109.85C279.583 111.95 277.617 113.533 275.15 114.6C272.683 115.667 269.933 116.2 266.9 116.2C263.7 116.2 260.833 115.7 258.3 114.7C255.767 113.7 253.55 112.467 251.65 111C249.75 109.533 248.15 108.067 246.85 106.6C245.55 105.133 244.517 103.933 243.75 103L238.2 110.9C238.9 111.833 240 113.117 241.5 114.75C243 116.35 244.917 117.983 247.25 119.65C249.583 121.317 252.367 122.733 255.6 123.9C258.833 125.033 262.517 125.6 266.65 125.6ZM311.512 150H321.212V114.4C323.412 117.933 326.278 120.683 329.812 122.65C333.345 124.617 337.212 125.6 341.412 125.6C346.278 125.6 350.628 124.417 354.462 122.05C358.295 119.683 361.312 116.45 363.512 112.35C365.745 108.217 366.862 103.567 366.862 98.4C366.862 93.1667 365.745 88.5167 363.512 84.45C361.278 80.35 358.228 77.1167 354.362 74.75C350.528 72.3833 346.145 71.2 341.212 71.2C336.978 71.2 333.095 72.1667 329.562 74.1C326.062 76 323.278 78.6667 321.212 82.1V72.8H311.512V150ZM338.862 117.25C335.395 117.25 332.295 116.45 329.562 114.85C326.862 113.217 324.728 110.983 323.162 108.15C321.628 105.317 320.862 102.067 320.862 98.4C320.862 94.7333 321.628 91.4833 323.162 88.65C324.728 85.8167 326.862 83.6 329.562 82C332.295 80.3667 335.395 79.55 338.862 79.55C342.328 79.55 345.395 80.3667 348.062 82C350.762 83.6 352.878 85.8333 354.412 88.7C355.978 91.5333 356.762 94.7833 356.762 98.45C356.762 102.083 355.995 105.317 354.462 108.15C352.928 110.983 350.812 113.217 348.112 114.85C345.412 116.45 342.328 117.25 338.862 117.25ZM408.332 125.6C413.765 125.6 418.649 124.45 422.982 122.15C427.349 119.85 430.799 116.65 433.332 112.55C435.899 108.45 437.182 103.733 437.182 98.4C437.182 93.0333 435.899 88.3167 433.332 84.25C430.799 80.15 427.349 76.95 422.982 74.65C418.649 72.35 413.765 71.2 408.332 71.2C402.899 71.2 397.999 72.35 393.632 74.65C389.299 76.95 385.849 80.15 383.282 84.25C380.749 88.3167 379.482 93.0333 379.482 98.4C379.482 103.733 380.749 108.45 383.282 112.55C385.849 116.65 389.299 119.85 393.632 122.15C397.999 124.45 402.899 125.6 408.332 125.6ZM408.332 117.15C404.765 117.15 401.565 116.35 398.732 114.75C395.899 113.15 393.665 110.933 392.032 108.1C390.399 105.267 389.582 102.033 389.582 98.4C389.582 94.7333 390.399 91.5 392.032 88.7C393.665 85.8667 395.899 83.65 398.732 82.05C401.565 80.45 404.765 79.65 408.332 79.65C411.932 79.65 415.149 80.45 417.982 82.05C420.815 83.65 423.049 85.8667 424.682 88.7C426.315 91.5 427.132 94.7333 427.132 98.4C427.132 102.033 426.315 105.267 424.682 108.1C423.049 110.933 420.815 113.15 417.982 114.75C415.149 116.35 411.932 117.15 408.332 117.15ZM453.406 124H463.106V91.75C463.106 89.65 463.723 87.6833 464.956 85.85C466.223 84.0167 467.856 82.5333 469.856 81.4C471.89 80.2333 474.023 79.65 476.256 79.65C477.456 79.65 478.74 79.8167 480.106 80.15C481.473 80.4833 482.673 80.9333 483.706 81.5L487.706 73.3C486.506 72.6667 485.073 72.1667 483.406 71.8C481.773 71.4 480.156 71.2 478.556 71.2C471.723 71.2 466.573 74.2333 463.106 80.3V72.8H453.406V124ZM513.895 125.6C517.529 125.6 520.745 124.767 523.545 123.1L521.095 115.35C519.629 116.45 517.962 117 516.095 117C512.229 117 510.295 114.367 510.295 109.1V80.15H522.595V72.8H510.295V53.65H500.595V72.8H494.895V80.15H500.595V109.7C500.595 114.733 501.762 118.65 504.095 121.45C506.429 124.217 509.695 125.6 513.895 125.6ZM532.837 124H583.587V116.3H549.837L584.887 72.8H536.787V80.5H567.837L532.837 124ZM624.152 125.6C629.586 125.6 634.469 124.45 638.802 122.15C643.169 119.85 646.619 116.65 649.152 112.55C651.719 108.45 653.002 103.733 653.002 98.4C653.002 93.0333 651.719 88.3167 649.152 84.25C646.619 80.15 643.169 76.95 638.802 74.65C634.469 72.35 629.586 71.2 624.152 71.2C618.719 71.2 613.819 72.35 609.452 74.65C605.119 76.95 601.669 80.15 599.102 84.25C596.569 88.3167 595.302 93.0333 595.302 98.4C595.302 103.733 596.569 108.45 599.102 112.55C601.669 116.65 605.119 119.85 609.452 122.15C613.819 124.45 618.719 125.6 624.152 125.6ZM624.152 117.15C620.586 117.15 617.386 116.35 614.552 114.75C611.719 113.15 609.486 110.933 607.852 108.1C606.219 105.267 605.402 102.033 605.402 98.4C605.402 94.7333 606.219 91.5 607.852 88.7C609.486 85.8667 611.719 83.65 614.552 82.05C617.386 80.45 620.586 79.65 624.152 79.65C627.752 79.65 630.969 80.45 633.802 82.05C636.636 83.65 638.869 85.8667 640.502 88.7C642.136 91.5 642.952 94.7333 642.952 98.4C642.952 102.033 642.136 105.267 640.502 108.1C638.869 110.933 636.636 113.15 633.802 114.75C630.969 116.35 627.752 117.15 624.152 117.15ZM669.227 124H678.927V91.55C678.927 88.15 680.143 85.2 682.577 82.7C685.01 80.2 688.377 78.95 692.677 78.95C696.843 78.95 700.077 80.2333 702.377 82.8C704.677 85.3667 705.827 89.05 705.827 93.85V124H715.527V91.9C715.527 85.4333 713.777 80.3667 710.277 76.7C706.777 73.0333 702.06 71.2 696.127 71.2C692.093 71.2 688.61 71.9833 685.677 73.55C682.743 75.1167 680.493 77.0667 678.927 79.4V72.8H669.227V124ZM759.197 125.6C764.397 125.6 769.114 124.483 773.347 122.25C777.614 120.017 780.964 116.883 783.397 112.85L776.297 109.15C772.197 114.85 766.664 117.7 759.697 117.7C755.997 117.7 752.714 116.933 749.847 115.4C747.014 113.833 744.78 111.683 743.147 108.95C741.547 106.217 740.747 103.067 740.747 99.5H784.747C784.914 98.8 784.997 98.1 784.997 97.4C784.997 92.2 783.864 87.6333 781.597 83.7C779.364 79.7667 776.23 76.7 772.197 74.5C768.197 72.3 763.53 71.2 758.197 71.2C754.43 71.2 750.897 71.9 747.597 73.3C744.297 74.7 741.397 76.6667 738.897 79.2C736.397 81.7 734.447 84.6 733.047 87.9C731.647 91.2 730.947 94.75 730.947 98.55C730.947 103.683 732.18 108.3 734.647 112.4C737.114 116.467 740.48 119.683 744.747 122.05C749.014 124.417 753.83 125.6 759.197 125.6ZM741.247 92.35C741.914 88.3167 743.797 85.1 746.897 82.7C749.997 80.3 753.814 79.1 758.347 79.1C762.647 79.1 766.347 80.3333 769.447 82.8C772.58 85.2333 774.514 88.4167 775.247 92.35H741.247Z" fill="#3E4874"/>
<path d="M95.44 137.16C89.56 137.16 84.16 136.32 79.24 134.64C74.32 132.96 70.42 130.74 67.54 127.98C64.78 125.22 63.4 122.28 63.4 119.16C63.4 115.56 65.08 113.34 68.44 112.5C71.8 116.1 75.82 119.16 80.5 121.68C85.3 124.08 90.4 125.28 95.8 125.28C101.08 125.28 105.22 124.02 108.22 121.5C111.22 118.98 112.72 115.5 112.72 111.06C112.72 107.1 111.28 103.8 108.4 101.16C105.52 98.52 100.48 96.06 93.28 93.78C82.84 90.3 75.46 86.46 71.14 82.26C66.94 77.94 64.84 72.12 64.84 64.8C64.84 56.28 67.6 50.22 73.12 46.62C78.76 42.9 85.84 41.04 94.36 41.04C103.36 41.04 110.56 42.78 115.96 46.26C121.48 49.74 124.24 54 124.24 59.04C124.24 62.64 122.56 64.86 119.2 65.7C115.84 61.74 112.18 58.56 108.22 56.16C104.38 53.76 99.94 52.56 94.9 52.56C90.1 52.56 86.14 53.7 83.02 55.98C80.02 58.14 78.52 61.02 78.52 64.62C78.52 68.7 80.08 72.06 83.2 74.7C86.32 77.34 91.72 79.98 99.4 82.62C109.6 85.98 116.74 89.76 120.82 93.96C125.02 98.16 127.12 103.62 127.12 110.34C127.12 119.34 124.18 126.06 118.3 130.5C112.42 134.94 104.8 137.16 95.44 137.16Z" fill="#F2F2F2"/>
</svg>
