<svg width="812" height="190" viewBox="0 0 812 190" fill="none" xmlns="http://www.w3.org/2000/svg">
<rect x="3" y="3" width="806" height="184" fill="#3E4874"/>
<rect x="5.5" y="5.5" width="188" height="179" fill="#F2F2F2" stroke="#3E4874" stroke-width="5"/>
<path d="M269.65 128.6C274.95 128.6 279.667 127.667 283.8 125.8C287.933 123.933 291.183 121.233 293.55 117.7C295.95 114.133 297.15 109.833 297.15 104.8C297.15 101.067 296.483 97.8833 295.15 95.25C293.85 92.6167 292.05 90.3667 289.75 88.5C287.45 86.6 284.783 84.95 281.75 83.55C278.717 82.1167 275.5 80.7333 272.1 79.4C269.567 78.4333 267.15 77.4333 264.85 76.4C262.55 75.3333 260.667 73.9667 259.2 72.3C257.733 70.6333 257 68.4167 257 65.65C257 63.35 257.567 61.1833 258.7 59.15C259.833 57.1167 261.467 55.4667 263.6 54.2C265.767 52.9 268.4 52.25 271.5 52.25C275.3 52.25 278.7 53.1167 281.7 54.85C284.7 56.55 287.017 58.4833 288.65 60.65L293.4 53.2C292.067 51.5 290.283 49.8833 288.05 48.35C285.817 46.7833 283.267 45.5 280.4 44.5C277.567 43.5 274.55 43 271.35 43C266.583 43 262.383 44.05 258.75 46.15C255.117 48.25 252.283 51.0333 250.25 54.5C248.217 57.9667 247.2 61.7333 247.2 65.8C247.2 69.8333 248.133 73.1833 250 75.85C251.9 78.5167 254.25 80.6833 257.05 82.35C259.883 84.0167 262.667 85.4 265.4 86.5C269.3 88.0333 272.833 89.55 276 91.05C279.167 92.55 281.667 94.3833 283.5 96.55C285.367 98.6833 286.3 101.517 286.3 105.05C286.3 108.15 285.55 110.75 284.05 112.85C282.583 114.95 280.617 116.533 278.15 117.6C275.683 118.667 272.933 119.2 269.9 119.2C266.7 119.2 263.833 118.7 261.3 117.7C258.767 116.7 256.55 115.467 254.65 114C252.75 112.533 251.15 111.067 249.85 109.6C248.55 108.133 247.517 106.933 246.75 106L241.2 113.9C241.9 114.833 243 116.117 244.5 117.75C246 119.35 247.917 120.983 250.25 122.65C252.583 124.317 255.367 125.733 258.6 126.9C261.833 128.033 265.517 128.6 269.65 128.6ZM314.512 153H324.212V117.4C326.412 120.933 329.278 123.683 332.812 125.65C336.345 127.617 340.212 128.6 344.412 128.6C349.278 128.6 353.628 127.417 357.462 125.05C361.295 122.683 364.312 119.45 366.512 115.35C368.745 111.217 369.862 106.567 369.862 101.4C369.862 96.1667 368.745 91.5167 366.512 87.45C364.278 83.35 361.228 80.1167 357.362 77.75C353.528 75.3833 349.145 74.2 344.212 74.2C339.978 74.2 336.095 75.1667 332.562 77.1C329.062 79 326.278 81.6667 324.212 85.1V75.8H314.512V153ZM341.862 120.25C338.395 120.25 335.295 119.45 332.562 117.85C329.862 116.217 327.728 113.983 326.162 111.15C324.628 108.317 323.862 105.067 323.862 101.4C323.862 97.7333 324.628 94.4833 326.162 91.65C327.728 88.8167 329.862 86.6 332.562 85C335.295 83.3667 338.395 82.55 341.862 82.55C345.328 82.55 348.395 83.3667 351.062 85C353.762 86.6 355.878 88.8333 357.412 91.7C358.978 94.5333 359.762 97.7833 359.762 101.45C359.762 105.083 358.995 108.317 357.462 111.15C355.928 113.983 353.812 116.217 351.112 117.85C348.412 119.45 345.328 120.25 341.862 120.25ZM411.332 128.6C416.765 128.6 421.649 127.45 425.982 125.15C430.349 122.85 433.799 119.65 436.332 115.55C438.899 111.45 440.182 106.733 440.182 101.4C440.182 96.0333 438.899 91.3167 436.332 87.25C433.799 83.15 430.349 79.95 425.982 77.65C421.649 75.35 416.765 74.2 411.332 74.2C405.899 74.2 400.999 75.35 396.632 77.65C392.299 79.95 388.849 83.15 386.282 87.25C383.749 91.3167 382.482 96.0333 382.482 101.4C382.482 106.733 383.749 111.45 386.282 115.55C388.849 119.65 392.299 122.85 396.632 125.15C400.999 127.45 405.899 128.6 411.332 128.6ZM411.332 120.15C407.765 120.15 404.565 119.35 401.732 117.75C398.899 116.15 396.665 113.933 395.032 111.1C393.399 108.267 392.582 105.033 392.582 101.4C392.582 97.7333 393.399 94.5 395.032 91.7C396.665 88.8667 398.899 86.65 401.732 85.05C404.565 83.45 407.765 82.65 411.332 82.65C414.932 82.65 418.149 83.45 420.982 85.05C423.815 86.65 426.049 88.8667 427.682 91.7C429.315 94.5 430.132 97.7333 430.132 101.4C430.132 105.033 429.315 108.267 427.682 111.1C426.049 113.933 423.815 116.15 420.982 117.75C418.149 119.35 414.932 120.15 411.332 120.15ZM456.406 127H466.106V94.75C466.106 92.65 466.723 90.6833 467.956 88.85C469.223 87.0167 470.856 85.5333 472.856 84.4C474.89 83.2333 477.023 82.65 479.256 82.65C480.456 82.65 481.74 82.8167 483.106 83.15C484.473 83.4833 485.673 83.9333 486.706 84.5L490.706 76.3C489.506 75.6667 488.073 75.1667 486.406 74.8C484.773 74.4 483.156 74.2 481.556 74.2C474.723 74.2 469.573 77.2333 466.106 83.3V75.8H456.406V127ZM516.895 128.6C520.529 128.6 523.745 127.767 526.545 126.1L524.095 118.35C522.629 119.45 520.962 120 519.095 120C515.229 120 513.295 117.367 513.295 112.1V83.15H525.595V75.8H513.295V56.65H503.595V75.8H497.895V83.15H503.595V112.7C503.595 117.733 504.762 121.65 507.095 124.45C509.429 127.217 512.695 128.6 516.895 128.6ZM535.837 127H586.587V119.3H552.837L587.887 75.8H539.787V83.5H570.837L535.837 127ZM627.152 128.6C632.586 128.6 637.469 127.45 641.802 125.15C646.169 122.85 649.619 119.65 652.152 115.55C654.719 111.45 656.002 106.733 656.002 101.4C656.002 96.0333 654.719 91.3167 652.152 87.25C649.619 83.15 646.169 79.95 641.802 77.65C637.469 75.35 632.586 74.2 627.152 74.2C621.719 74.2 616.819 75.35 612.452 77.65C608.119 79.95 604.669 83.15 602.102 87.25C599.569 91.3167 598.302 96.0333 598.302 101.4C598.302 106.733 599.569 111.45 602.102 115.55C604.669 119.65 608.119 122.85 612.452 125.15C616.819 127.45 621.719 128.6 627.152 128.6ZM627.152 120.15C623.586 120.15 620.386 119.35 617.552 117.75C614.719 116.15 612.486 113.933 610.852 111.1C609.219 108.267 608.402 105.033 608.402 101.4C608.402 97.7333 609.219 94.5 610.852 91.7C612.486 88.8667 614.719 86.65 617.552 85.05C620.386 83.45 623.586 82.65 627.152 82.65C630.752 82.65 633.969 83.45 636.802 85.05C639.636 86.65 641.869 88.8667 643.502 91.7C645.136 94.5 645.952 97.7333 645.952 101.4C645.952 105.033 645.136 108.267 643.502 111.1C641.869 113.933 639.636 116.15 636.802 117.75C633.969 119.35 630.752 120.15 627.152 120.15ZM672.227 127H681.927V94.55C681.927 91.15 683.143 88.2 685.577 85.7C688.01 83.2 691.377 81.95 695.677 81.95C699.843 81.95 703.077 83.2333 705.377 85.8C707.677 88.3667 708.827 92.05 708.827 96.85V127H718.527V94.9C718.527 88.4333 716.777 83.3667 713.277 79.7C709.777 76.0333 705.06 74.2 699.127 74.2C695.093 74.2 691.61 74.9833 688.677 76.55C685.743 78.1167 683.493 80.0667 681.927 82.4V75.8H672.227V127ZM762.197 128.6C767.397 128.6 772.114 127.483 776.347 125.25C780.614 123.017 783.964 119.883 786.397 115.85L779.297 112.15C775.197 117.85 769.664 120.7 762.697 120.7C758.997 120.7 755.714 119.933 752.847 118.4C750.014 116.833 747.78 114.683 746.147 111.95C744.547 109.217 743.747 106.067 743.747 102.5H787.747C787.914 101.8 787.997 101.1 787.997 100.4C787.997 95.2 786.864 90.6333 784.597 86.7C782.364 82.7667 779.23 79.7 775.197 77.5C771.197 75.3 766.53 74.2 761.197 74.2C757.43 74.2 753.897 74.9 750.597 76.3C747.297 77.7 744.397 79.6667 741.897 82.2C739.397 84.7 737.447 87.6 736.047 90.9C734.647 94.2 733.947 97.75 733.947 101.55C733.947 106.683 735.18 111.3 737.647 115.4C740.114 119.467 743.48 122.683 747.747 125.05C752.014 127.417 756.83 128.6 762.197 128.6ZM744.247 95.35C744.914 91.3167 746.797 88.1 749.897 85.7C752.997 83.3 756.814 82.1 761.347 82.1C765.647 82.1 769.347 83.3333 772.447 85.8C775.58 88.2333 777.514 91.4167 778.247 95.35H744.247Z" fill="#F2F2F2"/>
<path d="M98.44 140.16C92.56 140.16 87.16 139.32 82.24 137.64C77.32 135.96 73.42 133.74 70.54 130.98C67.78 128.22 66.4 125.28 66.4 122.16C66.4 118.56 68.08 116.34 71.44 115.5C74.8 119.1 78.82 122.16 83.5 124.68C88.3 127.08 93.4 128.28 98.8 128.28C104.08 128.28 108.22 127.02 111.22 124.5C114.22 121.98 115.72 118.5 115.72 114.06C115.72 110.1 114.28 106.8 111.4 104.16C108.52 101.52 103.48 99.06 96.28 96.78C85.84 93.3 78.46 89.46 74.14 85.26C69.94 80.94 67.84 75.12 67.84 67.8C67.84 59.28 70.6 53.22 76.12 49.62C81.76 45.9 88.84 44.04 97.36 44.04C106.36 44.04 113.56 45.78 118.96 49.26C124.48 52.74 127.24 57 127.24 62.04C127.24 65.64 125.56 67.86 122.2 68.7C118.84 64.74 115.18 61.56 111.22 59.16C107.38 56.76 102.94 55.56 97.9 55.56C93.1 55.56 89.14 56.7 86.02 58.98C83.02 61.14 81.52 64.02 81.52 67.62C81.52 71.7 83.08 75.06 86.2 77.7C89.32 80.34 94.72 82.98 102.4 85.62C112.6 88.98 119.74 92.76 123.82 96.96C128.02 101.16 130.12 106.62 130.12 113.34C130.12 122.34 127.18 129.06 121.3 133.5C115.42 137.94 107.8 140.16 98.44 140.16Z" fill="#3E4874"/>
<path d="M3 3V0H0V3H3ZM809 3H812V0H809V3ZM809 187V190H812V187H809ZM3 187H0V190H3V187ZM3 6H809V0H3V6ZM806 3V187H812V3H806ZM809 184H3V190H809V184ZM6 187V3H0V187H6Z" fill="#F2F2F2"/>
</svg>
